<?xml version="1.0" encoding="UTF-8" standalone="no"?>
<!-- Created with Inkscape (http://www.inkscape.org/) -->

<svg
   xmlns:dc="http://purl.org/dc/elements/1.1/"
   xmlns:cc="http://creativecommons.org/ns#"
   xmlns:rdf="http://www.w3.org/1999/02/22-rdf-syntax-ns#"
   xmlns:svg="http://www.w3.org/2000/svg"
   xmlns="http://www.w3.org/2000/svg"
   xmlns:sodipodi="http://sodipodi.sourceforge.net/DTD/sodipodi-0.dtd"
   xmlns:inkscape="http://www.inkscape.org/namespaces/inkscape"
   width="500"
   height="500"
   id="svg2"
   version="1.1"
   inkscape:version="0.48.2 r9819"
   sodipodi:docname="Hat.svg"
   inkscape:export-filename="D:\LightUpLeeton\Logo\Hat.png"
   inkscape:export-xdpi="18"
   inkscape:export-ydpi="18">
  <defs
     id="defs4" />
  <sodipodi:namedview
     id="base"
     pagecolor="#ffffff"
     bordercolor="#666666"
     borderopacity="1.0"
     inkscape:pageopacity="0.0"
     inkscape:pageshadow="2"
     inkscape:zoom="1.4"
     inkscape:cx="329.86545"
     inkscape:cy="275.46063"
     inkscape:document-units="px"
     inkscape:current-layer="layer1"
     showgrid="false"
     inkscape:window-width="1920"
     inkscape:window-height="1018"
     inkscape:window-x="-8"
     inkscape:window-y="-8"
     inkscape:window-maximized="1" />
  <metadata
     id="metadata7">
    <rdf:RDF>
      <cc:Work
         rdf:about="">
        <dc:format>image/svg+xml</dc:format>
        <dc:type
           rdf:resource="http://purl.org/dc/dcmitype/StillImage" />
        <dc:title></dc:title>
      </cc:Work>
    </rdf:RDF>
  </metadata>
  <g
     inkscape:label="Layer 1"
     inkscape:groupmode="layer"
     id="layer1"
     transform="translate(0,-552.36218)">
    <g
       id="g3770"
       transform="matrix(1.3251599,0,0,1.3251599,-1878.8377,612.01572)">
      <path
         sodipodi:nodetypes="csssssccssscc"
         inkscape:connector-curvature="0"
         id="path2996"
         d="m 1488.9649,107.86954 c 0.2525,-1.01015 10.7761,-22.903945 16.92,-29.294412 9.8889,-10.285734 22.9346,-17.511532 36.113,-22.98097 12.1099,-5.02597 25.3626,-7.067108 38.3858,-8.586297 13.7134,-1.599713 27.674,-1.834867 41.4162,-0.505076 12.7518,1.233946 25.2331,4.58945 37.6282,7.828682 18.1079,4.732192 60.1041,19.697975 60.1041,19.697975 l -1.0101,19.192896 c 0,0 -13.7409,-1.946723 -15.91,-1.262693 -10.774,3.39754 -19.4486,12.072675 -27.0215,20.455585 -7.9261,8.77387 -13.7456,19.45057 -18.4353,30.30458 -4.0177,9.29869 -7.8287,38.38579 -7.8287,38.38579 z"
         style="fill:#c40f44;fill-opacity:1;stroke:#000000;stroke-width:5;stroke-linecap:butt;stroke-linejoin:miter;stroke-miterlimit:4;stroke-opacity:1;stroke-dasharray:none" />
      <path
         sodipodi:nodetypes="ssssssssss"
         inkscape:connector-curvature="0"
         id="path3766"
         d="m 1703.8748,75.039593 c 1.5312,-7.104138 7.419,-13.619219 12.627,-18.687821 5.0777,-4.941868 12.3643,-8.333353 19.4454,-8.586297 8.2224,-0.293714 16.8468,3.1468 23.2335,8.333759 6.3655,5.169824 12.6794,13.102523 13.8896,21.213203 1.2323,8.259313 -0.5574,17.302454 -4.7982,24.496203 -3.5984,6.10387 -10.9397,12.8036 -17.4251,15.65736 -6.7193,2.95664 -15.3836,1.89417 -22.476,0 -8.0302,-2.14461 -16.7294,-6.59214 -20.7081,-13.88959 -4.3931,-8.057331 -5.7218,-19.565737 -3.7881,-28.536817 z"
         style="fill:#ffffff;fill-opacity:1;stroke:#000000;stroke-width:4;stroke-linecap:butt;stroke-linejoin:miter;stroke-miterlimit:4;stroke-opacity:1;stroke-dasharray:none" />
      <path
         sodipodi:nodetypes="sssssccssssccs"
         inkscape:connector-curvature="0"
         id="path3768"
         d="m 1494.2857,98.790753 c -8.9865,-1.808307 -18.5016,-1.748388 -27.5,0 -6.5537,1.273377 -13.482,3.179117 -18.5714,7.499997 -4.8871,4.14918 -8.388,10.22363 -10,16.42857 -1.5577,5.99602 -2.0207,13.0128 0.7143,18.57143 2.0524,4.17137 6.5502,6.86147 10.7143,8.92857 40.311,8.98774 78.3111,20.25583 113.2142,37.5 15.6802,7.8096 30.5244,17.27793 45,27.14286 11.6483,7.93815 21.914,17.78972 33.5715,25.71429 4.5926,3.12198 8.7854,7.80625 14.2857,8.57143 4.5193,0.6287 10.0187,-0.31456 13.2143,-3.57143 4.8128,-4.90503 4.897,-13.12893 5,-20 -0.6804,-23.86538 -11.3836,-47.1917 -31.4286,-61.78572 -46.4771,-28.03539 -94.8067,-54.2531 -148.2143,-64.999997 z"
         style="fill:#ffffff;fill-opacity:1;stroke:#000000;stroke-width:4;stroke-linecap:butt;stroke-linejoin:miter;stroke-miterlimit:4;stroke-opacity:1;stroke-dasharray:none" />
    </g>
  </g>
</svg>
